<?xml version="1.0" encoding="UTF-8" standalone="no"?>
<!-- Created with Inkscape (http://www.inkscape.org/) -->

<svg
   width="686.31079mm"
   height="484.9382mm"
   viewBox="0 0 686.31079 484.9382"
   version="1.1"
   id="svg1"
   xmlns:inkscape="http://www.inkscape.org/namespaces/inkscape"
   xmlns:sodipodi="http://sodipodi.sourceforge.net/DTD/sodipodi-0.dtd"
   xmlns="http://www.w3.org/2000/svg"
   xmlns:svg="http://www.w3.org/2000/svg">
  <sodipodi:namedview
     id="namedview1"
     pagecolor="#ffffff"
     bordercolor="#000000"
     borderopacity="0.25"
     inkscape:showpageshadow="2"
     inkscape:pageopacity="0.0"
     inkscape:pagecheckerboard="0"
     inkscape:deskcolor="#d1d1d1"
     inkscape:document-units="mm" />
  <defs
     id="defs1" />
  <g
     inkscape:label="Layer 1"
     inkscape:groupmode="layer"
     id="layer1"
     transform="translate(171.18542,104.24585)">
    <rect
       style="fill:#000000;fill-opacity:1;stroke:none;stroke-width:0.307185;stroke-linecap:round;stroke-dasharray:none;paint-order:stroke markers fill"
       id="rect23"
       width="686.31079"
       height="484.9382"
       x="-171.18541"
       y="-104.24584"
       inkscape:export-filename="bg-cover-1.png"
       inkscape:export-xdpi="96"
       inkscape:export-ydpi="96" />
    <path
       id="path35"
       style="fill:#000000;fill-opacity:0.301961;stroke:#000000;stroke-width:0;stroke-linecap:round;paint-order:stroke markers fill"
       d="m -88.77161,-44.5171 c -27.10534,0 -48.92686,21.82023 -48.92686,48.92557 0,27.10537 21.82152,48.92687 48.92686,48.92687 27.10539,0 48.92562,-21.8215 48.92562,-48.92687 0,-27.10534 -21.82023,-48.92557 -48.92562,-48.92557 z m 0,19.64939 c 16.21897,0 29.27623,13.05724 29.27623,29.27618 0,16.21893 -13.05726,29.27621 -29.27623,29.27621 -16.21897,0 -29.27618,-13.05728 -29.27618,-29.27621 0,-16.21894 13.05721,-29.27618 29.27618,-29.27618 z" />
    <path
       id="path36"
       style="fill:#800000;fill-opacity:1;stroke:#000000;stroke-width:0;stroke-linecap:round;paint-order:stroke markers fill"
       d="m -88.77161,-39.96413 c -25.84609,0 -46.65382,20.80648 -46.65382,46.65257 0,25.8461 20.80773,46.6538 46.65382,46.6538 25.84607,0 46.65258,-20.8077 46.65258,-46.6538 0,-25.84609 -20.80651,-46.65257 -46.65258,-46.65257 z m 0,18.73651 c 15.46546,0 27.91607,12.45063 27.91607,27.91606 0,15.46544 -12.45061,27.91607 -27.91607,27.91607 -15.46548,0 -27.91606,-12.45063 -27.91606,-27.91607 0,-15.46543 12.45058,-27.91606 27.91606,-27.91606 z" />
    <path
       id="path37"
       style="fill:#000000;fill-opacity:0.301961;stroke:#000000;stroke-width:0;stroke-linecap:round;paint-order:stroke markers fill"
       d="m 29.62667,184.25317 c -11.54191,0 -20.83388,9.29142 -20.83388,20.83333 0,11.54192 9.29197,20.83388 20.83388,20.83388 11.54193,0 20.83335,-9.29196 20.83335,-20.83388 0,-11.54191 -9.29142,-20.83333 -20.83335,-20.83333 z m 0,8.36704 c 6.90631,0 12.46631,5.55999 12.46631,12.46629 0,6.90629 -5.56,12.4663 -12.46631,12.4663 -6.90631,0 -12.46629,-5.56001 -12.46629,-12.4663 0,-6.9063 5.55998,-12.46629 12.46629,-12.46629 z" />
    <path
       id="path38"
       style="fill:#800000;fill-opacity:1;stroke:#000000;stroke-width:0;stroke-linecap:round;paint-order:stroke markers fill"
       d="m 29.62667,186.1919 c -11.0057,0 -19.86598,8.85975 -19.86598,19.86545 0,11.0057 8.86028,19.86597 19.86598,19.86597 11.00569,0 19.86545,-8.86027 19.86545,-19.86597 0,-11.0057 -8.85976,-19.86545 -19.86545,-19.86545 z m 0,7.97832 c 6.58545,0 11.88713,5.30169 11.88713,11.88713 0,6.58544 -5.30168,11.88713 -11.88713,11.88713 -6.58546,0 -11.88713,-5.30169 -11.88713,-11.88713 0,-6.58544 5.30167,-11.88713 11.88713,-11.88713 z" />
    <path
       id="path39"
       style="fill:#000000;fill-opacity:0.301961;stroke:#000000;stroke-width:0;stroke-linecap:round;paint-order:stroke markers fill"
       d="m -80.74446,224.38295 c -32.66519,0 -58.96274,26.296 -58.96274,58.96119 0,32.66522 26.29755,58.96274 58.96274,58.96274 32.66525,0 58.96125,-26.29752 58.96125,-58.96274 0,-32.66519 -26.296,-58.96119 -58.96125,-58.96119 z m 0,23.67987 c 19.54581,0 35.28137,15.73554 35.28137,35.28132 0,19.54575 -15.73556,35.28134 -35.28137,35.28134 -19.5458,0 -35.28131,-15.73559 -35.28131,-35.28134 0,-19.54578 15.73551,-35.28132 35.28131,-35.28132 z" />
    <path
       id="path40"
       style="fill:#800000;fill-opacity:1;stroke:#000000;stroke-width:0;stroke-linecap:round;paint-order:stroke markers fill"
       d="m -80.74446,229.86982 c -31.14764,0 -56.22345,25.07431 -56.22345,56.22196 0,31.14764 25.07581,56.22342 56.22345,56.22342 31.14762,0 56.22196,-25.07578 56.22196,-56.22342 0,-31.14765 -25.07434,-56.22196 -56.22196,-56.22196 z m 0,22.57975 c 18.63773,0 33.64221,15.00451 33.64221,33.64221 0,18.6377 -15.00448,33.64221 -33.64221,33.64221 -18.63775,0 -33.64221,-15.00451 -33.64221,-33.64221 0,-18.6377 15.00446,-33.64221 33.64221,-33.64221 z" />
    <path
       id="path41"
       style="fill:#000000;fill-opacity:0.301961;stroke:#000000;stroke-width:0;stroke-linecap:round;paint-order:stroke markers fill"
       d="m 238.32938,280.57749 c -11.54191,0 -20.83388,9.29142 -20.83388,20.83333 0,11.54192 9.29197,20.83388 20.83388,20.83388 11.54193,0 20.83335,-9.29196 20.83335,-20.83388 0,-11.54191 -9.29142,-20.83333 -20.83335,-20.83333 z m 0,8.36704 c 6.90631,0 12.46631,5.55999 12.46631,12.46629 0,6.90629 -5.56,12.4663 -12.46631,12.4663 -6.90631,0 -12.46629,-5.56001 -12.46629,-12.4663 0,-6.9063 5.55998,-12.46629 12.46629,-12.46629 z" />
    <path
       id="path42"
       style="fill:#800000;fill-opacity:1;stroke:#000000;stroke-width:0;stroke-linecap:round;paint-order:stroke markers fill"
       d="m 238.32938,282.51622 c -11.0057,0 -19.86598,8.85975 -19.86598,19.86545 0,11.0057 8.86028,19.86597 19.86598,19.86597 11.00569,0 19.86545,-8.86027 19.86545,-19.86597 0,-11.0057 -8.85976,-19.86545 -19.86545,-19.86545 z m 0,7.97832 c 6.58545,0 11.88713,5.30169 11.88713,11.88713 0,6.58544 -5.30168,11.88713 -11.88713,11.88713 -6.58546,0 -11.88713,-5.30169 -11.88713,-11.88713 0,-6.58544 5.30167,-11.88713 11.88713,-11.88713 z" />
    <path
       id="path43"
       style="fill:#000000;fill-opacity:0.301961;stroke:#000000;stroke-width:0;stroke-linecap:round;paint-order:stroke markers fill"
       d="m 188.16075,-2.37521 c -23.77033,0 -42.90694,19.13549 -42.90694,42.90581 0,23.77034 19.13661,42.90694 42.90694,42.90694 23.77036,0 42.90584,-19.1366 42.90584,-42.90694 0,-23.77032 -19.13548,-42.90581 -42.90584,-42.90581 z m 0,17.23175 c 14.2234,0 25.6741,11.45068 25.6741,25.67406 0,14.22336 -11.4507,25.67408 -25.6741,25.67408 -14.22341,0 -25.67407,-11.45072 -25.67407,-25.67408 0,-14.22338 11.45066,-25.67406 25.67407,-25.67406 z" />
    <path
       id="path44"
       style="fill:#800000;fill-opacity:1;stroke:#000000;stroke-width:0;stroke-linecap:round;paint-order:stroke markers fill"
       d="m 188.16075,1.61757 c -22.66601,0 -40.91357,18.24646 -40.91357,40.91247 0,22.66601 18.24756,40.91355 40.91357,40.91355 22.66598,0 40.91247,-18.24754 40.91247,-40.91355 0,-22.66601 -18.24649,-40.91247 -40.91247,-40.91247 z m 0,16.43118 c 13.56259,0 24.48129,10.91872 24.48129,24.48129 0,13.56258 -10.9187,24.4813 -24.48129,24.4813 -13.56262,0 -24.4813,-10.91872 -24.4813,-24.4813 0,-13.56257 10.91868,-24.48129 24.4813,-24.48129 z" />
    <path
       id="path51"
       style="fill:#000000;fill-opacity:0.301961;stroke:#000000;stroke-width:0;stroke-linecap:round;paint-order:stroke markers fill"
       d="m 449.03905,118.03019 c -19.8795,0 -35.8837,16.00328 -35.8837,35.88275 0,19.87948 16.0042,35.88369 35.8837,35.88369 19.8795,0 35.8827,-16.00421 35.8827,-35.88369 0,-19.87947 -16.0032,-35.88275 -35.8827,-35.88275 z m 0,14.41116 c 11.8952,0 21.4716,9.57637 21.4716,21.47159 0,11.8952 -9.5764,21.4716 -21.4716,21.4716 -11.8953,0 -21.4716,-9.5764 -21.4716,-21.4716 0,-11.89522 9.5763,-21.47159 21.4716,-21.47159 z" />
    <path
       id="path52"
       style="fill:#800000;fill-opacity:1;stroke:#000000;stroke-width:0;stroke-linecap:round;paint-order:stroke markers fill"
       d="m 449.03905,121.36941 c -18.9559,0 -34.2166,15.25978 -34.2166,34.21569 0,18.95591 15.2607,34.21659 34.2166,34.21659 18.9559,0 34.2157,-15.26068 34.2157,-34.21659 0,-18.95591 -15.2598,-34.21569 -34.2157,-34.21569 z m 0,13.74163 c 11.3426,0 20.474,9.13148 20.474,20.47406 0,11.34258 -9.1314,20.47406 -20.474,20.47406 -11.3426,0 -20.4741,-9.13148 -20.4741,-20.47406 0,-11.34258 9.1315,-20.47406 20.4741,-20.47406 z" />
    <path
       id="path45"
       style="fill:#000000;fill-opacity:0.301961;stroke:#000000;stroke-width:0;stroke-linecap:round;paint-order:stroke markers fill"
       d="m 455.05915,312.6856 c -11.5419,0 -20.8339,9.29142 -20.8339,20.83333 0,11.54192 9.2919,20.83388 20.8339,20.83388 11.5419,0 20.8333,-9.29196 20.8333,-20.83388 0,-11.54191 -9.2914,-20.83333 -20.8333,-20.83333 z m 0,8.36704 c 6.9063,0 12.4663,5.55999 12.4663,12.46629 0,6.90629 -5.56,12.4663 -12.4663,12.4663 -6.9063,0 -12.4663,-5.56001 -12.4663,-12.4663 0,-6.9063 5.56,-12.46629 12.4663,-12.46629 z" />
    <path
       id="path46"
       style="fill:#800000;fill-opacity:1;stroke:#000000;stroke-width:0;stroke-linecap:round;paint-order:stroke markers fill"
       d="m 455.05915,314.62433 c -11.0057,0 -19.866,8.85975 -19.866,19.86545 0,11.0057 8.8603,19.86597 19.866,19.86597 11.0057,0 19.8654,-8.86027 19.8654,-19.86597 0,-11.0057 -8.8597,-19.86545 -19.8654,-19.86545 z m 0,7.97832 c 6.5854,0 11.8871,5.30169 11.8871,11.88713 0,6.58544 -5.3017,11.88713 -11.8871,11.88713 -6.5855,0 -11.8872,-5.30169 -11.8872,-11.88713 0,-6.58544 5.3017,-11.88713 11.8872,-11.88713 z" />
    <path
       id="path47"
       style="fill:#000000;fill-opacity:0.301961;stroke:#000000;stroke-width:0;stroke-linecap:round;paint-order:stroke markers fill"
       d="m 62.73828,-74.61846 c -16.54479,0 -29.8644,13.31882 -29.8644,29.86362 0,16.5448 13.31961,29.8644 29.8644,29.8644 16.54482,0 29.86364,-13.3196 29.86364,-29.8644 0,-16.5448 -13.31882,-29.86362 -29.86364,-29.86362 z m 0,11.99377 c 9.89987,0 17.86988,7.96999 17.86988,17.86985 0,9.89984 -7.97001,17.86986 -17.86988,17.86986 -9.89988,0 -17.86985,-7.97002 -17.86985,-17.86986 0,-9.89986 7.96997,-17.86985 17.86985,-17.86985 z" />
    <path
       id="path48"
       style="fill:#800000;fill-opacity:1;stroke:#000000;stroke-width:0;stroke-linecap:round;paint-order:stroke markers fill"
       d="m 62.73828,-71.83938 c -15.77616,0 -28.47696,12.70004 -28.47696,28.4762 0,15.77616 12.7008,28.47695 28.47696,28.47695 15.77614,0 28.4762,-12.70079 28.4762,-28.47695 0,-15.77616 -12.70006,-28.4762 -28.4762,-28.4762 z m 0,11.43656 c 9.43994,0 17.03965,7.59972 17.03965,17.03964 0,9.43993 -7.59971,17.03965 -17.03965,17.03965 -9.43995,0 -17.03965,-7.59972 -17.03965,-17.03965 0,-9.43992 7.5997,-17.03964 17.03965,-17.03964 z" />
    <path
       id="path7-0"
       style="fill:#000000;fill-opacity:0.301961;stroke:#000000;stroke-width:0;stroke-linecap:round;paint-order:stroke markers fill"
       d="m 376.79599,-18.43152 c -29.32993,0 -52.94239,23.61106 -52.94239,52.941 0,29.32996 23.61246,52.94239 52.94239,52.94239 29.32996,0 52.94106,-23.61243 52.94106,-52.94239 0,-29.32994 -23.6111,-52.941 -52.94106,-52.941 z m 0,21.26206 c 17.5501,0 31.67896,14.12887 31.67896,31.67894 0,17.55004 -14.12886,31.67897 -31.67896,31.67897 -17.55009,0 -31.67894,-14.12893 -31.67894,-31.67897 0,-17.55007 14.12885,-31.67894 31.67894,-31.67894 z" />
    <path
       id="rect2-8"
       style="fill:#800000;fill-opacity:1;stroke:#000000;stroke-width:0;stroke-linecap:round;paint-order:stroke markers fill"
       d="m 376.79599,-13.50488 c -27.96733,0 -50.4828,22.51412 -50.4828,50.48145 0,27.96734 22.51547,50.48278 50.4828,50.48278 27.96736,0 50.48146,-22.51544 50.48146,-50.48278 0,-27.96733 -22.5141,-50.48145 -50.48146,-50.48145 z m 0,20.27425 c 16.73474,0 30.20716,13.47249 30.20716,30.2072 0,16.73471 -13.47242,30.2072 -30.20716,30.2072 -16.73476,0 -30.20719,-13.47249 -30.20719,-30.2072 0,-16.73471 13.47243,-30.2072 30.20719,-30.2072 z" />
    <path
       id="path23"
       style="fill:#000000;fill-opacity:0.3;stroke:#000000;stroke-width:0;stroke-linecap:round;paint-order:stroke markers fill"
       d="m -119.89024,93.9484 v 10.67258 l 24.20805,24.20804 -24.20805,24.20806 v 10.67259 h 10.67259 l 24.20804,-24.20804 24.20804,24.20804 h 10.67259 v -10.67259 l -24.20804,-24.20806 24.20804,-24.20804 V 93.9484 h -10.67259 l -24.20804,24.20804 -24.20804,-24.20804 z" />
    <path
       id="path25"
       style="fill:#000000;fill-opacity:0.3;stroke:#000000;stroke-width:0;stroke-linecap:round;paint-order:stroke markers fill"
       d="m 0.51515,39.76582 v 11.2866 L 26.11593,76.6532 0.51515,102.254 v 11.2866 h 11.2866 L 37.40253,87.93982 63.00331,113.5406 H 74.28992 V 102.254 L 48.68913,76.6532 74.28992,51.05242 V 39.76582 H 63.00331 L 37.40253,65.3666 11.80175,39.76582 Z" />
    <path
       id="path27"
       style="fill:#000000;fill-opacity:0.3;stroke:#000000;stroke-width:0;stroke-linecap:round;paint-order:stroke markers fill"
       d="m 122.9273,103.98074 v 16.81275 l 38.13544,38.13544 -38.13544,38.13547 v 16.81275 h 16.81275 l 38.13544,-38.13544 38.13544,38.13544 h 16.81276 V 197.0644 l -38.13544,-38.13547 38.13544,-38.13544 v -16.81275 h -16.81276 l -38.13544,38.13544 -38.13544,-38.13544 z" />
    <path
       id="path29"
       style="fill:#000000;fill-opacity:0.3;stroke:#000000;stroke-width:0;stroke-linecap:round;paint-order:stroke markers fill"
       d="m 46.67054,266.52918 v 11.90062 l 26.99352,26.99352 -26.99352,26.99354 v 11.90062 h 11.90062 l 26.99352,-26.99352 26.99352,26.99352 h 11.90062 V 332.41686 L 97.4653,305.42332 124.45882,278.4298 V 266.52918 H 112.5582 L 85.56468,293.5227 58.57116,266.52918 Z" />
    <path
       id="path31"
       style="fill:#000000;fill-opacity:0.3;stroke:#000000;stroke-width:0;stroke-linecap:round;paint-order:stroke markers fill"
       d="m 311.56415,226.39533 v 13.74214 l 31.17056,31.17056 -31.17056,31.17058 v 13.74215 h 13.74215 l 31.17055,-31.17056 31.17056,31.17056 h 13.74215 V 302.47861 L 370.219,271.30803 401.38956,240.13747 v -13.74214 h -13.74215 l -31.17056,31.17055 -31.17055,-31.17055 z" />
    <path
       id="path49"
       style="fill:#000000;fill-opacity:0.3;stroke:#000000;stroke-width:0;stroke-linecap:round;paint-order:stroke markers fill"
       d="m 247.34623,-66.59115 v 8.52353 l 19.33345,19.33345 -19.33345,19.33346 v 8.52353 h 8.52353 l 19.33345,-19.33345 19.33345,19.33345 h 8.52353 v -8.52353 l -19.33346,-19.33346 19.33346,-19.33345 v -8.52353 h -8.52353 l -19.33345,19.33345 -19.33345,-19.33345 z" />
    <path
       id="path33"
       style="fill:#000000;fill-opacity:0.3;stroke:#000000;stroke-width:0;stroke-linecap:round;paint-order:stroke markers fill"
       d="m 450.02865,-64.5844 v 6.37447 l 14.4589,14.45886 -14.4589,14.45887 v 6.37447 h 6.3745 l 14.4588,-14.45886 14.4589,14.45886 h 6.3745 v -6.37447 l -14.4589,-14.45887 14.4589,-14.45886 v -6.37447 h -6.3745 l -14.4589,14.45886 -14.4588,-14.45886 z" />
    <path
       id="path6-4"
       style="fill:#000000;fill-opacity:0.3;stroke:#000000;stroke-width:0;stroke-linecap:round;paint-order:stroke markers fill"
       d="m 279.45433,120.03636 v 10.05856 l 22.8153,22.81531 -22.8153,22.81531 v 10.05857 h 10.05857 l 22.8153,-22.8153 22.8153,22.8153 h 10.05857 v -10.05857 l -22.8153,-22.81531 22.8153,-22.81531 V 120.03636 H 335.1435 l -22.8153,22.8153 -22.8153,-22.8153 z" />
    <path
       id="path24"
       style="fill:none;fill-opacity:1;stroke:#0044aa;stroke-width:2;stroke-linecap:round;stroke-dasharray:none;stroke-opacity:1;paint-order:stroke markers fill"
       d="m -118.27016,97.19348 v 10.17689 l 23.08367,23.08367 -23.08367,23.08367 v 10.17688 h 10.17688 l 23.08367,-23.08367 23.08367,23.08367 h 10.17689 v -10.17688 l -23.08367,-23.08367 23.08367,-23.08367 V 97.19348 h -10.17689 l -23.08367,23.08367 -23.08367,-23.08367 z" />
    <path
       id="path26"
       style="fill:none;fill-opacity:1;stroke:#0044aa;stroke-width:2;stroke-linecap:round;stroke-dasharray:none;stroke-opacity:1;paint-order:stroke markers fill"
       d="M 2.22843,43.1976 V 53.95999 L 26.64015,78.37171 2.22843,102.78343 v 10.76238 H 12.99081 L 37.40253,89.13409 61.81425,113.54581 H 72.57664 V 102.78343 L 48.16491,78.37171 72.57664,53.95999 V 43.1976 H 61.81425 L 37.40253,67.60932 12.99081,43.1976 Z" />
    <path
       id="path28"
       style="fill:none;fill-opacity:1;stroke:#0044aa;stroke-width:2;stroke-linecap:round;stroke-dasharray:none;stroke-opacity:1;paint-order:stroke markers fill"
       d="m 125.47944,109.0928 v 16.03186 l 36.36419,36.36419 -36.36419,36.3642 v 16.03186 h 16.03186 l 36.36419,-36.36419 36.3642,36.36419 h 16.03186 v -16.03186 l -36.36419,-36.3642 36.36419,-36.36419 V 109.0928 h -16.03186 l -36.3642,36.36419 -36.36419,-36.36419 z" />
    <path
       id="path30"
       style="fill:none;fill-opacity:1;stroke:#0044aa;stroke-width:2;stroke-linecap:round;stroke-dasharray:none;stroke-opacity:1;paint-order:stroke markers fill"
       d="m 48.47703,270.14766 v 11.34788 l 25.73977,25.73978 -25.73977,25.73977 v 11.34788 h 11.34788 l 25.73977,-25.73977 25.73977,25.73977 h 11.34788 V 332.97509 L 96.91256,307.23532 122.65233,281.49554 V 270.14766 H 111.30445 L 85.56468,295.88744 59.82491,270.14766 Z" />
    <path
       id="path32"
       style="fill:none;fill-opacity:1;stroke:#0044aa;stroke-width:2;stroke-linecap:round;stroke-dasharray:none;stroke-opacity:1;paint-order:stroke markers fill"
       d="m 313.65017,230.57374 v 13.10388 l 29.72281,29.7228 -29.72281,29.7228 v 13.10388 h 13.10388 l 29.7228,-29.7228 29.72281,29.7228 h 13.10387 v -13.10388 l -29.7228,-29.7228 29.7228,-29.7228 v -13.10388 h -13.10387 l -29.72281,29.7228 -29.7228,-29.7228 z" />
    <path
       id="path50"
       style="fill:none;fill-opacity:1;stroke:#0044aa;stroke-width:2;stroke-linecap:round;stroke-dasharray:none;stroke-opacity:1;paint-order:stroke markers fill"
       d="m 248.64008,-63.9995 v 8.12764 l 18.43548,18.43548 -18.43548,18.43549 v 8.12764 h 8.12764 l 18.43549,-18.43548 18.43548,18.43548 h 8.12764 v -8.12764 l -18.43548,-18.43549 18.43548,-18.43548 v -8.12764 h -8.12764 l -18.43548,18.43548 -18.43549,-18.43548 z" />
    <path
       id="path34"
       style="fill:none;fill-opacity:1;stroke:#0044aa;stroke-width:2;stroke-linecap:round;stroke-dasharray:none;stroke-opacity:1;paint-order:stroke markers fill"
       d="m 450.99625,-62.64619 v 6.0784 l 13.7873,13.7873 -13.7873,13.7873 v 6.0784 h 6.0784 l 13.7873,-13.7873 13.7873,13.7873 h 6.0784 v -6.0784 l -13.7873,-13.7873 13.7873,-13.7873 v -6.0784 h -6.0784 l -13.7873,13.7873 -13.7873,-13.7873 z" />
    <path
       id="rect5-4"
       style="fill:none;fill-opacity:1;stroke:#0044aa;stroke-width:2;stroke-linecap:round;stroke-dasharray:none;stroke-opacity:1;paint-order:stroke markers fill"
       d="m 280.9812,123.09475 v 9.59138 l 21.75561,21.75562 -21.75561,21.75561 v 9.59139 h 9.59139 l 21.75561,-21.75562 21.75562,21.75562 h 9.59138 v -9.59139 l -21.75561,-21.75561 21.75561,-21.75562 v -9.59138 h -9.59138 l -21.75562,21.75561 -21.75561,-21.75561 z" />
  </g>
</svg>
