<?xml version="1.0" encoding="UTF-8" standalone="no"?>
<!-- Created with Inkscape (http://www.inkscape.org/) -->

<svg
   width="55.0392mm"
   height="47.077629mm"
   viewBox="0 0 55.0392 47.077629"
   version="1.1"
   id="svg1"
   xmlns:inkscape="http://www.inkscape.org/namespaces/inkscape"
   xmlns:sodipodi="http://sodipodi.sourceforge.net/DTD/sodipodi-0.dtd"
   xmlns="http://www.w3.org/2000/svg"
   xmlns:svg="http://www.w3.org/2000/svg">
  <sodipodi:namedview
     id="namedview1"
     pagecolor="#ffffff"
     bordercolor="#000000"
     borderopacity="0.25"
     inkscape:showpageshadow="2"
     inkscape:pageopacity="0.0"
     inkscape:pagecheckerboard="0"
     inkscape:deskcolor="#d1d1d1"
     inkscape:document-units="mm" />
  <defs
     id="defs1" />
  <g
     inkscape:label="Layer 1"
     inkscape:groupmode="layer"
     id="layer1"
     transform="translate(-52.3875,-120.38541)">
    <path
       id="path21"
       style="opacity:0.3;fill:#000000;fill-opacity:1;stroke:none;stroke-width:0.313481;stroke-linecap:round;stroke-dasharray:none;paint-order:stroke markers fill"
       d="M 83.88761,120.38541 A 23.538777,23.538777 0 0 0 61.0289,138.69094 h -8.6414 l 6.44528,11.16368 6.44473,11.16315 6.44528,-11.16315 6.44528,-11.16368 h -8.99293 a 15.675267,15.675267 0 0 1 14.71247,-10.44173 15.675267,15.675267 0 0 1 15.67527,15.67528 15.675267,15.675267 0 0 1 -15.67527,15.67527 15.675267,15.675267 0 0 1 -7.10191,-1.7393 l -0.3715,0.64366 -3.5515,6.15099 a 23.538777,23.538777 0 0 0 11.02491,2.80793 23.538777,23.538777 0 0 0 23.53909,-23.53855 23.538777,23.538777 0 0 0 -23.53909,-23.53908 z"
       inkscape:export-filename="button-restart-game.png"
       inkscape:export-xdpi="96"
       inkscape:export-ydpi="96" />
    <path
       id="path19"
       style="fill:#800000;fill-opacity:1;stroke:none;stroke-width:0.3;stroke-linecap:round;stroke-dasharray:none;paint-order:stroke markers fill"
       d="m 83.71643,122.40998 a 22.526487,22.526487 0 0 0 -22.01468,18.02008 h 4.20491 3.52072 a 15.001149,15.001149 0 0 1 14.28905,-10.49445 15.001149,15.001149 0 0 1 15.00115,15.00116 15.001149,15.001149 0 0 1 -15.00115,15.00115 15.001149,15.001149 0 0 1 -6.79649,-1.6645 l -0.35553,0.61598 -3.39876,5.88646 a 22.526487,22.526487 0 0 0 10.55078,2.68718 22.526487,22.526487 0 0 0 22.52679,-22.52627 22.526487,22.526487 0 0 0 -22.52679,-22.52679 z" />
    <path
       sodipodi:type="star"
       style="fill:#0044aa;fill-opacity:1;stroke:none;stroke-width:0.3;stroke-linecap:round;stroke-dasharray:none;paint-order:stroke markers fill"
       id="path20"
       inkscape:flatsided="false"
       sodipodi:sides="3"
       sodipodi:cx="188.13344"
       sodipodi:cy="343.28085"
       sodipodi:r1="14.663226"
       sodipodi:r2="29.326452"
       sodipodi:arg1="0.52359878"
       sodipodi:arg2="1.5707963"
       inkscape:rounded="0"
       inkscape:randomized="0"
       d="m 200.83216,350.61247 -12.69872,21.99484 -12.69873,-21.99484 -12.69872,-21.99484 25.39745,0 25.39745,0 z"
       inkscape:transform-center-x="-3.4941406e-06"
       inkscape:transform-center-y="-3.5611362"
       transform="matrix(0.4857231,0,0,0.4857231,-25.47386,-19.68891)" />
  </g>
</svg>
