<?xml version="1.0" encoding="UTF-8" standalone="no"?>
<!-- Created with Inkscape (http://www.inkscape.org/) -->

<svg
   width="162.21053mm"
   height="20.812799mm"
   viewBox="0 0 162.21052 20.812799"
   version="1.1"
   id="svg1"
   xmlns:inkscape="http://www.inkscape.org/namespaces/inkscape"
   xmlns:sodipodi="http://sodipodi.sourceforge.net/DTD/sodipodi-0.dtd"
   xmlns="http://www.w3.org/2000/svg"
   xmlns:svg="http://www.w3.org/2000/svg">
  <sodipodi:namedview
     id="namedview1"
     pagecolor="#ffffff"
     bordercolor="#000000"
     borderopacity="0.25"
     inkscape:showpageshadow="2"
     inkscape:pageopacity="0.0"
     inkscape:pagecheckerboard="0"
     inkscape:deskcolor="#d1d1d1"
     inkscape:document-units="mm" />
  <defs
     id="defs1" />
  <g
     inkscape:label="Layer 1"
     inkscape:groupmode="layer"
     id="layer1"
     transform="translate(-144.72708,-144.99166)">
    <g
       id="g17"
       transform="translate(120.83235,-55.427313)"
       inkscape:export-filename="logo.png"
       inkscape:export-xdpi="96"
       inkscape:export-ydpi="96">
      <path
         style="font-weight:bold;font-size:293.333px;line-height:1.2;font-family:'Tw Cen MT';-inkscape-font-specification:'Tw Cen MT Bold';text-align:center;letter-spacing:1px;text-anchor:middle;white-space:pre;fill:#800000;fill-opacity:1;stroke-width:1.13386;stroke-linecap:round;paint-order:stroke markers fill"
         d="m 2925.4742,860.33691 h 105.8463 v 37.23954 h -65.3124 v 37.95569 h 65.3124 v 36.66662 h -65.3124 v 38.95834 h 65.3124 v 37.2395 h -105.8463 z"
         transform="matrix(0.10771783,0,0,0.10771783,-140.422,108.02306)"
         id="path17" />
      <path
         id="path15"
         style="font-weight:bold;font-size:293.333px;line-height:1.2;font-family:'Tw Cen MT';-inkscape-font-specification:'Tw Cen MT Bold';text-align:center;letter-spacing:1px;text-anchor:middle;white-space:pre;fill:#800000;fill-opacity:1;stroke-width:1.13386;stroke-linecap:round;paint-order:stroke markers fill"
         d="m 2793.8513,858.33261 c -25.2082,0 -47.0268,9.06847 -65.4555,27.21079 -18.3334,18.04683 -27.5035,40.96497 -27.5035,68.75138 0,27.97737 8.8359,51.03602 26.5008,69.17832 17.7604,18.1424 40.3395,27.2156 67.7439,27.2156 27.4045,0 50.1337,-9.1216 68.1805,-27.3595 18.0469,-18.2378 27.0669,-41.15114 27.0669,-68.74658 0,-27.7864 -9.1169,-50.75298 -27.3547,-68.8953 -18.2378,-18.23781 -41.2965,-27.35471 -69.1784,-27.35471 z m 1.8614,37.52518 c 15.7552,0.28646 28.3599,5.73137 37.813,16.33031 9.5486,10.59893 14.3202,24.63276 14.3202,42.10668 0,17.76038 -4.8684,32.08482 -14.608,42.97021 -9.6441,10.78991 -22.3457,16.18161 -38.1009,16.18161 -14.9913,0 -27.4023,-5.4886 -37.2373,-16.46945 -9.8351,-10.98088 -14.752,-24.82576 -14.752,-41.53579 0,-17.6649 4.8201,-32.08141 14.4642,-43.25326 9.644,-11.17186 22.3456,-16.61677 38.1008,-16.33031 z"
         transform="matrix(0.10771783,0,0,0.10771783,-140.422,108.02306)" />
      <path
         style="font-weight:bold;font-size:293.333px;line-height:1.2;font-family:'Tw Cen MT';-inkscape-font-specification:'Tw Cen MT Bold';text-align:center;letter-spacing:1px;text-anchor:middle;white-space:pre;fill:#800000;fill-opacity:1;stroke-width:1.13386;stroke-linecap:round;paint-order:stroke markers fill"
         d="m 2555.5189,860.33691 h 126.4712 v 39.96089 h -43.112 v 148.0988 h -40.5338 V 900.2978 h -42.8254 z"
         transform="matrix(0.10771783,0,0,0.10771783,-140.422,108.02306)"
         id="path14" />
      <path
         style="font-weight:bold;font-size:293.333px;line-height:1.2;font-family:'Tw Cen MT';-inkscape-font-specification:'Tw Cen MT Bold';text-align:center;letter-spacing:1px;text-anchor:middle;white-space:pre;fill:#0044aa;fill-opacity:1;stroke-width:1.13386;stroke-linecap:round;paint-order:stroke markers fill"
         d="m 2457.8419,870.36294 v 45.97651 q -30.5077,-18.47654 -53.4244,-18.47654 -22.9166,0 -36.6666,15.75519 -13.75,15.75519 -13.75,42.39578 0,25.20831 14.4661,40.39058 14.4662,15.03904 38.6719,15.03904 21.1979,0 50.703,-17.04424 v 45.54684 q -33.0859,11.0286 -55.1431,11.0286 -37.9557,0 -64.4531,-27.7864 -26.4974,-27.92967 -26.4974,-68.03379 0,-40.82027 26.9271,-69.03638 27.0703,-28.35935 65.7421,-28.35935 24.9219,0 53.4244,12.60416 z"
         transform="matrix(0.10771783,0,0,0.10771783,-140.422,108.02306)"
         id="path13" />
      <path
         id="path11"
         style="font-weight:bold;font-size:293.333px;line-height:1.2;font-family:'Tw Cen MT';-inkscape-font-specification:'Tw Cen MT Bold';text-align:center;letter-spacing:1px;text-anchor:middle;white-space:pre;fill:#0044aa;fill-opacity:1;stroke-width:1.13386;stroke-linecap:round;paint-order:stroke markers fill"
         d="m 2194.3024,860.33792 -75.1942,188.05768 h 40.5331 l 14.752,-36.9543 h 72.0472 l 15.3228,36.9543 h 40.6771 l -76.7678,-188.05768 z m 15.7547,61.58888 22.6293,55.42903 h -44.5438 z"
         transform="matrix(0.10771783,0,0,0.10771783,-140.422,108.02306)" />
      <path
         style="font-weight:bold;font-size:293.333px;line-height:1.2;font-family:'Tw Cen MT';-inkscape-font-specification:'Tw Cen MT Bold';text-align:center;letter-spacing:1px;text-anchor:middle;white-space:pre;fill:#0044aa;fill-opacity:1;stroke-width:1.13386;stroke-linecap:round;paint-order:stroke markers fill"
         d="m 1995.2174,860.33691 h 126.4713 v 39.96089 h -43.112 v 148.0988 h -40.5338 V 900.2978 h -42.8255 z"
         transform="matrix(0.10771783,0,0,0.10771783,-140.422,108.02306)"
         id="path10" />
      <path
         style="font-weight:bold;font-size:293.333px;line-height:1.2;font-family:'Tw Cen MT';-inkscape-font-specification:'Tw Cen MT Bold';text-align:center;letter-spacing:1px;text-anchor:middle;white-space:pre;fill:#800000;fill-opacity:1;stroke-width:1.13386;stroke-linecap:round;paint-order:stroke markers fill"
         d="m 1897.5405,870.36294 v 45.97651 q -30.5078,-18.47654 -53.4245,-18.47654 -22.9166,0 -36.6666,15.75519 -13.75,15.75519 -13.75,42.39578 0,25.20831 14.4662,40.39058 14.4661,15.03904 38.6718,15.03904 21.1979,0 50.7031,-17.04424 v 45.54684 q -33.0859,11.0286 -55.1432,11.0286 -37.9557,0 -64.4531,-27.7864 -26.4973,-27.92967 -26.4973,-68.03379 0,-40.82027 26.927,-69.03638 27.0703,-28.35935 65.7421,-28.35935 24.9219,0 53.4245,12.60416 z"
         transform="matrix(0.10771783,0,0,0.10771783,-140.422,108.02306)"
         id="path9" />
      <path
         style="font-weight:bold;font-size:293.333px;line-height:1.2;font-family:'Tw Cen MT';-inkscape-font-specification:'Tw Cen MT Bold';text-align:center;letter-spacing:1px;text-anchor:middle;white-space:pre;fill:#800000;fill-opacity:1;stroke-width:1.13386;stroke-linecap:round;paint-order:stroke markers fill"
         d="m 1677.8298,860.33691 h 40.3906 v 188.05969 h -40.3906 z"
         transform="matrix(0.10771783,0,0,0.10771783,-140.422,108.02306)"
         id="path8" />
      <path
         style="font-weight:bold;font-size:293.333px;line-height:1.2;font-family:'Tw Cen MT';-inkscape-font-specification:'Tw Cen MT Bold';text-align:center;letter-spacing:1px;text-anchor:middle;white-space:pre;fill:#800000;fill-opacity:1;stroke-width:1.13386;stroke-linecap:round;paint-order:stroke markers fill"
         d="m 1525.4367,860.33691 h 126.4712 v 39.96089 h -43.1119 v 148.0988 h -40.5338 V 900.2978 h -42.8255 z"
         transform="matrix(0.10771783,0,0,0.10771783,-140.422,108.02306)"
         id="text7" />
    </g>
  </g>
</svg>
