<?xml version="1.0" encoding="UTF-8" standalone="no"?>
<!-- Created with Inkscape (http://www.inkscape.org/) -->

<svg
   width="47.536209mm"
   height="47.536209mm"
   viewBox="0 0 47.536209 47.536209"
   version="1.1"
   id="svg1"
   xmlns:inkscape="http://www.inkscape.org/namespaces/inkscape"
   xmlns:sodipodi="http://sodipodi.sourceforge.net/DTD/sodipodi-0.dtd"
   xmlns="http://www.w3.org/2000/svg"
   xmlns:svg="http://www.w3.org/2000/svg">
  <sodipodi:namedview
     id="namedview1"
     pagecolor="#ffffff"
     bordercolor="#000000"
     borderopacity="0.25"
     inkscape:showpageshadow="2"
     inkscape:pageopacity="0.0"
     inkscape:pagecheckerboard="0"
     inkscape:deskcolor="#d1d1d1"
     inkscape:document-units="mm"
     inkscape:zoom="0.44631734"
     inkscape:cx="318.15927"
     inkscape:cy="382.01518"
     inkscape:window-width="1366"
     inkscape:window-height="697"
     inkscape:window-x="-8"
     inkscape:window-y="-8"
     inkscape:window-maximized="1"
     inkscape:current-layer="layer1" />
  <defs
     id="defs1" />
  <g
     inkscape:label="Layer 1"
     inkscape:groupmode="layer"
     id="layer1"
     transform="translate(-20.606865,-47.242027)">
    <rect
       style="fill:none;stroke:none;stroke-width:0.3;stroke-linecap:round;stroke-dasharray:none;paint-order:stroke markers fill"
       id="rect1"
       width="47.536209"
       height="47.536209"
       x="20.606865"
       y="47.242027"
       inkscape:export-filename=".\o.png"
       inkscape:export-xdpi="96"
       inkscape:export-ydpi="96" />
    <path
       id="path7"
       style="fill:#000000;fill-opacity:0.301961;stroke:#000000;stroke-width:0;stroke-linecap:round;paint-order:stroke markers fill"
       d="m 44.37518,49.205758 c -11.54191,0 -20.83388,9.29142 -20.83388,20.83333 0,11.54192 9.29197,20.83388 20.83388,20.83388 11.54193,0 20.83335,-9.29196 20.83335,-20.83388 0,-11.54191 -9.29142,-20.83333 -20.83335,-20.83333 z m 0,8.36704 c 6.90631,0 12.46631,5.55999 12.46631,12.46629 0,6.90629 -5.56,12.4663 -12.46631,12.4663 -6.90631,0 -12.46629,-5.56001 -12.46629,-12.4663 0,-6.9063 5.55998,-12.46629 12.46629,-12.46629 z" />
    <path
       id="rect2"
       style="fill:#800000;fill-opacity:1;stroke:#000000;stroke-width:0;stroke-linecap:round;paint-order:stroke markers fill"
       d="m 44.37517,51.144488 c -11.00569,0 -19.86597,8.85975 -19.86597,19.86545 0,11.0057 8.86028,19.86597 19.86597,19.86597 11.0057,0 19.86546,-8.86027 19.86546,-19.86597 0,-11.0057 -8.85976,-19.86545 -19.86546,-19.86545 z m 0,7.97832 c 6.58546,0 11.88714,5.30169 11.88714,11.88713 0,6.58544 -5.30168,11.88713 -11.88714,11.88713 -6.58545,0 -11.88712,-5.30169 -11.88712,-11.88713 0,-6.58544 5.30167,-11.88713 11.88712,-11.88713 z" />
  </g>
</svg>
